<?xml version="1.0" encoding="utf-8"?>
<!-- Generator: Adobe Illustrator 24.3.0, SVG Export Plug-In . SVG Version: 6.00 Build 0)  -->
<svg version="1.1" id="圖層_1" xmlns="http://www.w3.org/2000/svg" xmlns:xlink="http://www.w3.org/1999/xlink" x="0px" y="0px"
	 viewBox="0 0 80 80" style="enable-background:new 0 0 80 80;" xml:space="preserve">
<style type="text/css">
	.st0{fill-rule:evenodd;clip-rule:evenodd;fill:#E73645;}
	.st1{fill:#FFFFFF;}
</style>
<g id="view-case">
	<circle id="Oval" class="st0" cx="40" cy="40" r="40"/>
	<g id="View-Case" transform="translate(21.784091, 23.000000)">
		<polygon id="Path" class="st1" points="1.7,11.3 5.2,21.1 5.3,21.1 8.7,11.3 10.2,11.3 6,22.9 4.5,22.9 0.2,11.3 		"/>
		<path id="Shape" class="st1" d="M11.9,22.9v-8.7h1.3v8.7H11.9z M12.5,12.7c-0.3,0-0.5-0.1-0.7-0.3c-0.2-0.2-0.3-0.4-0.3-0.6
			s0.1-0.5,0.3-0.6c0.2-0.2,0.4-0.3,0.7-0.3c0.3,0,0.5,0.1,0.7,0.3c0.2,0.2,0.3,0.4,0.3,0.6s-0.1,0.5-0.3,0.6
			C13,12.6,12.8,12.7,12.5,12.7z"/>
		<path id="Path_1_" class="st1" d="M19.3,23.1c-0.8,0-1.6-0.2-2.2-0.6c-0.6-0.4-1.1-0.9-1.4-1.6c-0.3-0.7-0.5-1.5-0.5-2.3
			s0.2-1.7,0.5-2.4c0.3-0.7,0.8-1.2,1.4-1.6c0.6-0.4,1.3-0.6,2.1-0.6c0.5,0,0.9,0.1,1.3,0.2s0.8,0.4,1.2,0.7s0.7,0.8,0.9,1.3
			c0.2,0.6,0.3,1.2,0.3,2.1V19h-6.7v-1.2h5.4c0-0.5-0.1-0.9-0.3-1.3s-0.5-0.7-0.8-0.9c-0.4-0.2-0.8-0.3-1.3-0.3
			c-0.5,0-1,0.1-1.4,0.4s-0.7,0.6-0.9,1c-0.2,0.4-0.3,0.9-0.3,1.4v0.8c0,0.7,0.1,1.2,0.3,1.7c0.2,0.5,0.5,0.8,1,1
			c0.4,0.2,0.9,0.4,1.4,0.4c0.4,0,0.7-0.1,1-0.2c0.3-0.1,0.5-0.3,0.7-0.5s0.4-0.5,0.5-0.8l1.3,0.4c-0.1,0.4-0.4,0.8-0.7,1.2
			s-0.7,0.6-1.2,0.8C20.4,23,19.9,23.1,19.3,23.1z"/>
		<polygon id="Path_2_" class="st1" points="27,22.9 24.3,14.2 25.7,14.2 27.6,20.9 27.7,20.9 29.5,14.2 31,14.2 32.8,20.8 
			32.9,20.8 34.8,14.2 36.2,14.2 33.5,22.9 32.2,22.9 30.3,16.2 30.2,16.2 28.3,22.9 		"/>
	</g>
</g>
</svg>
